<svg xmlns="http://www.w3.org/2000/svg" viewBox="0 0 1200 820">
  <defs><linearGradient id="a" x1="0" y1="0" x2="1" y2="1"><stop stop-color="#080604"/><stop offset=".5" stop-color="#16110a"/><stop offset="1" stop-color="#3b2c15"/></linearGradient></defs>
  <rect width="1200" height="820" fill="url(#a)"/>
  <path d="M90 115h1020v590H90z" fill="#0c0a07"/>
  <path d="M140 170h290v420H140zM770 170h290v420H770z" fill="#21170b"/>
  <path d="M470 155h260v450H470z" fill="#111"/>
  <path d="M185 215h190v80H185zM815 215h190v80H815z" fill="#d9ad5f" opacity=".18"/>
  <path d="M290 595h620l80 95H210z" fill="#2b2012"/>
  <path d="M405 595h390l42 95H360z" fill="#d9ad5f" opacity=".24"/>
  <path d="M140 590h920M470 155v450M730 155v450" stroke="#f2d38a" stroke-opacity=".34" stroke-width="4"/>
  <circle cx="600" cy="96" r="32" fill="#f2d38a" opacity=".62"/>
</svg>
