<svg xmlns="http://www.w3.org/2000/svg" viewBox="0 0 1200 820">
  <defs><linearGradient id="a" x1="0" y1="0" x2="1" y2="1"><stop stop-color="#070604"/><stop offset=".62" stop-color="#1c1711"/><stop offset="1" stop-color="#59411d"/></linearGradient></defs>
  <rect width="1200" height="820" fill="url(#a)"/>
  <path d="M80 115h1040v580H80z" fill="#0d0b08"/>
  <path d="M165 170h870v330H165z" fill="#17120b"/>
  <path d="M210 205h240v250H210zM505 205h240v250H505zM800 205h190v250H800z" fill="#e4c47c" opacity=".16"/>
  <path d="M145 555h910v110H145z" fill="#21170c"/>
  <path d="M260 505h305c55 0 100 45 100 100v60H160v-60c0-55 45-100 100-100z" fill="#382817"/>
  <path d="M735 505h190c45 0 80 35 80 80v80H675v-80c0-45 35-80 60-80z" fill="#251b10"/>
  <path d="M170 170h860M170 500h860" stroke="#d9ad5f" stroke-opacity=".38" stroke-width="4"/>
  <circle cx="600" cy="118" r="42" fill="#d9ad5f" opacity=".55"/>
</svg>
